PathFileType	4	(X/Y/Z)	Patient4_TMGait_0pt5_02_left_36.trc.trc
DataRate	CameraRate	NumFrames	NumMarkers	Units	OrigDataRate	OrigDataStartFrame	OrigNumFrames
76.923076923077	76.923076923077	4	33	mm	76.923076923077	89	       141
Frame#	Time	Sacral			L.Shoulder			Chest			R.Shoulder			Neck			R.ASIS			L.ASIS			R.Thigh.Superior			R.Thigh.Lateral			R.Thigh.Inferior			R.Patella			L.Thigh.Superior			L.Thigh.Lateral			L.Thigh.Inferior			L.Patella			L.Shank.Superior			L.Shank.Lateral			L.Shank.Inferior			R.Shank.Superior			R.Shank.Lateral			R.Shank.Inferior			R.Heel			R.Midfoot.Superior			R.Midfoot.Lateral			R.Toe			L.Heel			L.Midfoot.Lateral			L.Midfoot.Superior			L.Toe			L.Elbow			L.Wrist			R.Elbow			R.Wrist			
		X1	Y1	Z1	X2	Y2	Z2	X3	Y3	Z3	X4	Y4	Z4	X5	Y5	Z5	X6	Y6	Z6	X7	Y7	Z7	X8	Y8	Z8	X9	Y9	Z9	X10	Y10	Z10	X11	Y11	Z11	X12	Y12	Z12	X13	Y13	Z13	X14	Y14	Z14	X15	Y15	Z15	X16	Y16	Z16	X17	Y17	Z17	X18	Y18	Z18	X19	Y19	Z19	X20	Y20	Z20	X21	Y21	Z21	X22	Y22	Z22	X23	Y23	Z23	X24	Y24	Z24	X25	Y25	Z25	X26	Y26	Z26	X27	Y27	Z27	X28	Y28	Z28	X29	Y29	Z29	X30	Y30	Z30	X31	Y31	Z31	X32	Y32	Z32	X33	Y33	Z33	

89	47.484000000000	756.245154321634	1003.017313079860	504.058651360588	936.585636186964	1439.226344070260	345.924351656820	1033.373299401184	1362.205442649955	507.457493406306	942.268521347930	1426.415629983482	682.045560382881	929.583150757752	1493.120028220995	499.990242484793	983.533154625018	938.660496725530	624.919840592372	971.903521502398	960.135240324888	350.660698852888	1041.837586162085	748.559061686987	595.511032783714	969.556920489467	634.679763621015	652.493753184889	1053.541735578737	589.437435529066	574.092495444955	1061.632145876622	500.277986677650	579.865017199769	1011.920396933570	740.363418670937	376.337709615544	925.889775133002	625.929376827969	309.578666682359	1009.214603590426	541.274916434436	368.890926755247	1001.097776801805	455.947673674382	367.318951046821	934.896878950701	396.445737007217	361.606858815946	797.560972139086	346.387164066984	311.343163653733	788.049456119127	220.567493045390	372.619727374147	1038.422350387938	410.204967854992	586.391074736599	971.413673314298	301.576881858558	644.555590414046	1023.054593632186	210.571587589525	582.518393295297	899.900551631589	42.093581827814	546.690961726442	1070.164692779091	99.884339093183	582.708840722575	983.758911899257	36.340059080307	621.339822810008	1190.866473589477	50.187242529284	607.781943855582	599.787308850806	138.437968705853	411.020180718073	661.414874459217	107.287378410006	327.320406409126	764.157907508328	127.040102971403	348.718908114739	854.902837714455	34.985804263704	311.767294899704	968.275455431991	1101.565770714055	193.518327344053	1216.075025450430	1028.194704395047	203.907621015962	858.919683047889	1083.002777559609	778.625771366704	905.163151575422	825.909704046199	781.094300633402	
90	47.497000000000	756.439075283593	1003.751074894850	507.399850396232	934.451671974978	1440.722194136440	348.899318318159	1033.264985519314	1362.982908078507	508.919645763590	944.329694100695	1426.328949118082	684.880678289000	929.334843916082	1493.939312308302	503.365365147588	984.350762987664	939.601583588069	625.867626698854	970.595284132763	960.968834145185	351.624172928446	1040.241725583695	747.802785528241	598.114211505935	966.320340524533	634.821743468589	654.347537258109	1050.113936813162	588.821735739344	576.155119762346	1057.144078579827	499.810963204753	581.682543915214	1015.503182079520	743.691197755476	377.342738129903	933.181041696474	627.287867314309	309.911338020766	1019.449601415135	544.449675076435	368.165981609324	1012.673522124906	458.090240135760	365.950352949737	945.178115910687	398.345955374931	360.837537292220	805.769254382645	351.715951290168	312.528119012353	794.427502679542	225.707120938512	373.157699751127	1033.428688076586	409.940934210138	587.963417223242	965.710635983950	301.518897646017	645.632677619701	1017.103891064328	210.440183761959	583.446981846711	893.395976069771	42.126648747423	546.866839345127	1063.803512360555	99.899949322712	583.110464433262	977.251318924573	36.287867888528	621.544699895599	1184.393344522828	50.014818322679	608.027408019842	604.370876372992	148.518716466306	413.816200651478	663.958763671090	116.228060398158	328.945722733313	767.925138822903	132.213073094232	349.105990413651	854.959959780043	36.133740902763	309.914720412227	961.974629340221	1101.492529855844	197.967251502503	1206.330611351276	1015.419302433458	207.670000979899	870.198829184899	1080.489398105994	782.363564553882	926.258251053051	825.282616038940	783.840471456656	
91	47.510000000000	756.551770493679	1004.417741670544	510.597952675153	932.190925148553	1442.099445933808	351.667990836251	1033.034752107318	1363.720876954830	510.186328407862	946.245770355695	1426.223515557925	687.486444627801	928.997769702539	1494.710314846659	506.489474038680	985.010708914270	940.528431860485	626.842360469379	969.270950248488	961.735739311720	352.641928494096	1038.472940520134	747.105850333710	600.576616743822	963.000695035194	634.966422885727	656.149163781259	1046.527400654182	588.214833600276	578.105863139103	1052.479684706785	499.367625724428	583.447802119631	1018.709923985909	747.120312413773	378.117888475864	939.804982094413	629.056510508539	309.920683598397	1028.865304443053	548.057104071215	366.968448518795	1023.573812418742	460.831837298000	364.150108302606	955.243037596435	400.666723740559	359.610325392178	814.131902488349	356.560089739411	313.397688703869	801.859905620670	230.283242672284	373.336099669042	1028.315318620738	409.697867651401	589.469525030234	959.925817630656	301.473741209226	646.667949126553	1011.098620662109	210.322778877631	584.336493872053	886.830148568282	42.188348463282	547.041956875811	1057.431949925018	99.859094123475	583.476066536567	970.686958227663	36.239304014458	621.733970769785	1177.889427275419	49.712932941223	608.241606746221	610.844849017027	156.453063091935	416.523384345768	668.473517433066	123.698137045914	330.371208292855	773.381802281821	136.881370601084	349.121751328330	857.496123489370	37.726087381221	307.419331221875	955.380712310036	1101.325888568617	202.224723785480	1195.351755214046	1002.063114445407	211.140939284701	881.938271000524	1078.184483948139	785.902475553683	947.833206006115	825.245557988923	786.423954532847	
92	47.523000000000	756.564762583187	1005.040461577981	513.632505514738	929.881719538186	1443.360112698581	354.226938711665	1032.697810841600	1364.428334819208	511.289755241390	947.994636715574	1426.145942830673	689.862727957371	928.601409075842	1495.451301580702	509.346022276876	985.527627666362	941.440255711114	627.868112853145	967.936382191689	962.488352087917	353.748710911160	1036.591360379770	746.511452543334	602.792194436812	959.685404659255	635.135172586782	657.858280841532	1042.850845659187	587.636717656115	579.886099995663	1047.722464285366	498.957931911913	585.101874797512	1021.503381333033	750.624420997326	378.658969514226	945.656127804090	631.200416813486	309.646117988591	1037.358570779018	552.032509594922	365.329151775214	1033.684443181337	464.126499340845	361.939295364905	965.004989265247	403.354379918715	357.944558646561	822.616050849410	360.700962964053	313.873585461905	810.416851441881	234.057223539133	373.063851502285	1023.156735506569	409.485796915386	590.865292798780	954.127354538975	301.463580287586	647.637426987500	1005.083034660841	210.229067626574	585.163413912504	880.227692586691	42.276864941347	547.225157184018	1051.061942105611	99.785706524341	583.810247781965	964.092720813416	36.201022729822	621.910132401521	1171.373034718715	49.332061636336	608.427928765089	619.294661074676	161.800299914943	418.902993686109	675.148702550273	129.243191454221	331.425863640753	780.713539626034	140.740725750786	348.658751747813	862.855002494581	39.642457349071	304.319667791411	948.532978262063	1101.078467422713	206.325516123976	1183.058566338799	988.226922138530	214.303028183761	894.085713922164	1076.159287220040	789.168476403123	969.806623772576	825.889876499410	788.773695341197	
